<mxfile host="app.diagrams.net" modified="2022-11-09T12:40:33.611Z" agent="5.0 (Windows NT 10.0; Win64; x64) AppleWebKit/537.36 (KHTML, like Gecko) Chrome/107.0.0.0 Safari/537.36" etag="S8Zke6XkvEiBS6ngEu7L" version="20.5.3" type="github">
  <diagram id="tYUuNLcPiLJvWKA4qVDl" name="Страница 1">
    <mxGraphModel dx="1483" dy="1950" grid="1" gridSize="10" guides="1" tooltips="1" connect="1" arrows="1" fold="1" page="1" pageScale="1" pageWidth="827" pageHeight="1169" math="0" shadow="0">
      <root>
        <mxCell id="0" />
        <mxCell id="1" parent="0" />
        <mxCell id="SxMQuaQRuv7vPPh1gYyD-16" style="edgeStyle=orthogonalEdgeStyle;rounded=0;sketch=0;orthogonalLoop=1;jettySize=auto;html=1;exitX=0.5;exitY=0;exitDx=0;exitDy=0;entryX=0.462;entryY=1.003;entryDx=0;entryDy=0;entryPerimeter=0;strokeColor=default;endFill=0;" edge="1" parent="1" source="xvtYjUvMFz7qYb3zcexy-21" target="YpjAp0_FHeh2oU1D8aVD-21">
          <mxGeometry relative="1" as="geometry" />
        </mxCell>
        <mxCell id="xvtYjUvMFz7qYb3zcexy-21" value="&lt;p style=&quot;margin:0px;margin-top:4px;text-align:center;&quot;&gt;&lt;b&gt;Unit&lt;/b&gt;&lt;/p&gt;&lt;hr size=&quot;1&quot;&gt;&lt;p style=&quot;margin:0px;margin-left:4px;&quot;&gt;+ float x;&lt;/p&gt;&lt;p style=&quot;margin:0px;margin-left:4px;&quot;&gt;+ float y;&lt;/p&gt;&lt;p style=&quot;margin:0px;margin-left:4px;&quot;&gt;+ Texture texture;&lt;/p&gt;&lt;p style=&quot;margin:0px;margin-left:4px;&quot;&gt;+ Sprite sprite;&lt;/p&gt;&lt;p style=&quot;margin:0px;margin-left:4px;&quot;&gt;+ int hp;&lt;/p&gt;&lt;p style=&quot;margin:0px;margin-left:4px;&quot;&gt;+ const int speed;&lt;/p&gt;&lt;p style=&quot;margin:0px;margin-left:4px;&quot;&gt;+ const int capacity;&lt;/p&gt;&lt;p style=&quot;margin:0px;margin-left:4px;&quot;&gt;+ int size;&lt;/p&gt;&lt;p style=&quot;margin:0px;margin-left:4px;&quot;&gt;+ Item *inventory[capacity]&lt;/p&gt;&lt;p style=&quot;margin:0px;margin-left:4px;&quot;&gt;+ Item *current_item;&lt;/p&gt;&lt;hr size=&quot;1&quot;&gt;&lt;p style=&quot;margin:0px;margin-left:4px;&quot;&gt;+ void pick_up_item(&amp;amp;item);&lt;/p&gt;&lt;p style=&quot;margin:0px;margin-left:4px;&quot;&gt;+ void update();&lt;/p&gt;&lt;p style=&quot;margin:0px;margin-left:4px;&quot;&gt;+ void draw(RenderWindow &amp;amp;window);&lt;/p&gt;&lt;p style=&quot;margin:0px;margin-left:4px;&quot;&gt;+ void set_current_item(int number);&lt;/p&gt;&lt;p style=&quot;margin:0px;margin-left:4px;&quot;&gt;+ void get_damage(double damage);&lt;/p&gt;&lt;p style=&quot;margin:0px;margin-left:4px;&quot;&gt;+ void throw_item(int number);&lt;/p&gt;" style="verticalAlign=top;align=left;overflow=fill;fontSize=12;fontFamily=Helvetica;html=1;" parent="1" vertex="1">
          <mxGeometry x="470" y="210" width="210" height="280" as="geometry" />
        </mxCell>
        <mxCell id="YpjAp0_FHeh2oU1D8aVD-1" style="edgeStyle=orthogonalEdgeStyle;rounded=0;orthogonalLoop=1;jettySize=auto;html=1;exitX=0.5;exitY=0;exitDx=0;exitDy=0;entryX=0;entryY=1;entryDx=0;entryDy=0;startFill=1;endFill=0;" parent="1" edge="1">
          <mxGeometry relative="1" as="geometry">
            <mxPoint x="435" y="555" as="sourcePoint" />
            <mxPoint x="470" y="490" as="targetPoint" />
          </mxGeometry>
        </mxCell>
        <mxCell id="xvtYjUvMFz7qYb3zcexy-22" value="&lt;p style=&quot;margin:0px;margin-top:4px;text-align:center;&quot;&gt;&lt;b&gt;Player&lt;/b&gt;&lt;/p&gt;&lt;hr size=&quot;1&quot;&gt;&lt;p style=&quot;margin:0px;margin-left:4px;&quot;&gt;+ Player::Player();&lt;br&gt;&lt;/p&gt;" style="verticalAlign=top;align=left;overflow=fill;fontSize=12;fontFamily=Helvetica;html=1;" parent="1" vertex="1">
          <mxGeometry x="330" y="520" width="210" height="60" as="geometry" />
        </mxCell>
        <mxCell id="YpjAp0_FHeh2oU1D8aVD-3" style="edgeStyle=orthogonalEdgeStyle;rounded=0;orthogonalLoop=1;jettySize=auto;html=1;exitX=0.5;exitY=0;exitDx=0;exitDy=0;strokeColor=#FFFFFF;startFill=1;endFill=0;" parent="1" edge="1">
          <mxGeometry relative="1" as="geometry">
            <mxPoint x="685" y="590" as="sourcePoint" />
            <mxPoint x="715" y="560" as="targetPoint" />
          </mxGeometry>
        </mxCell>
        <mxCell id="YpjAp0_FHeh2oU1D8aVD-8" style="edgeStyle=orthogonalEdgeStyle;rounded=0;orthogonalLoop=1;jettySize=auto;html=1;strokeColor=#FFFFFF;startFill=1;endFill=0;" parent="1" edge="1">
          <mxGeometry relative="1" as="geometry">
            <mxPoint x="720" y="500" as="targetPoint" />
            <mxPoint x="715" y="560" as="sourcePoint" />
          </mxGeometry>
        </mxCell>
        <mxCell id="YpjAp0_FHeh2oU1D8aVD-10" style="edgeStyle=orthogonalEdgeStyle;rounded=0;orthogonalLoop=1;jettySize=auto;html=1;strokeColor=#FFFFFF;startFill=1;endFill=0;" parent="1" edge="1">
          <mxGeometry relative="1" as="geometry">
            <mxPoint x="650" y="490" as="targetPoint" />
            <mxPoint x="715" y="560" as="sourcePoint" />
          </mxGeometry>
        </mxCell>
        <mxCell id="YpjAp0_FHeh2oU1D8aVD-14" style="edgeStyle=orthogonalEdgeStyle;rounded=0;orthogonalLoop=1;jettySize=auto;html=1;exitX=0.5;exitY=0;exitDx=0;exitDy=0;entryX=0;entryY=1;entryDx=0;entryDy=0;startFill=1;endFill=0;" parent="1" edge="1">
          <mxGeometry relative="1" as="geometry">
            <mxPoint x="575" y="710" as="sourcePoint" />
            <mxPoint x="620" y="640" as="targetPoint" />
          </mxGeometry>
        </mxCell>
        <mxCell id="YpjAp0_FHeh2oU1D8aVD-12" value="&lt;p style=&quot;margin:0px;margin-top:4px;text-align:center;&quot;&gt;&lt;b&gt;Melee&lt;/b&gt;&lt;/p&gt;&lt;hr size=&quot;1&quot;&gt;&lt;p style=&quot;margin:0px;margin-left:4px;&quot;&gt;+ Melee::Melee();&lt;/p&gt;" style="verticalAlign=top;align=left;overflow=fill;fontSize=12;fontFamily=Helvetica;html=1;" parent="1" vertex="1">
          <mxGeometry x="460" y="710" width="210" height="50" as="geometry" />
        </mxCell>
        <mxCell id="YpjAp0_FHeh2oU1D8aVD-16" style="edgeStyle=orthogonalEdgeStyle;rounded=0;orthogonalLoop=1;jettySize=auto;html=1;exitX=0.5;exitY=0;exitDx=0;exitDy=0;strokeColor=#FFFFFF;startFill=1;endFill=0;" parent="1" source="YpjAp0_FHeh2oU1D8aVD-13" edge="1">
          <mxGeometry relative="1" as="geometry">
            <mxPoint x="770" y="685" as="targetPoint" />
          </mxGeometry>
        </mxCell>
        <mxCell id="YpjAp0_FHeh2oU1D8aVD-17" style="edgeStyle=orthogonalEdgeStyle;rounded=0;orthogonalLoop=1;jettySize=auto;html=1;exitX=0.5;exitY=0;exitDx=0;exitDy=0;entryX=0.5;entryY=1;entryDx=0;entryDy=0;startFill=1;endFill=0;" parent="1" source="YpjAp0_FHeh2oU1D8aVD-13" edge="1">
          <mxGeometry relative="1" as="geometry">
            <mxPoint x="715" y="640" as="targetPoint" />
          </mxGeometry>
        </mxCell>
        <mxCell id="YpjAp0_FHeh2oU1D8aVD-13" value="&lt;p style=&quot;margin:0px;margin-top:4px;text-align:center;&quot;&gt;&lt;b&gt;Friendly&lt;/b&gt;&lt;/p&gt;&lt;hr size=&quot;1&quot;&gt;&lt;p style=&quot;margin:0px;margin-left:4px;&quot;&gt;+ Friendly::Friendly();&lt;/p&gt;&lt;p style=&quot;margin:0px;margin-left:4px;&quot;&gt;+ void find_path_to_storage();&lt;/p&gt;" style="verticalAlign=top;align=left;overflow=fill;fontSize=12;fontFamily=Helvetica;html=1;" parent="1" vertex="1">
          <mxGeometry x="600" y="800" width="230" height="70" as="geometry" />
        </mxCell>
        <mxCell id="YpjAp0_FHeh2oU1D8aVD-19" style="edgeStyle=orthogonalEdgeStyle;rounded=0;orthogonalLoop=1;jettySize=auto;html=1;exitX=0.5;exitY=0;exitDx=0;exitDy=0;entryX=1;entryY=1;entryDx=0;entryDy=0;startFill=1;endFill=0;" parent="1" edge="1">
          <mxGeometry relative="1" as="geometry">
            <mxPoint x="865.0000000000002" y="710" as="sourcePoint" />
            <mxPoint x="810" y="640" as="targetPoint" />
          </mxGeometry>
        </mxCell>
        <mxCell id="YpjAp0_FHeh2oU1D8aVD-18" value="&lt;p style=&quot;margin:0px;margin-top:4px;text-align:center;&quot;&gt;&lt;b&gt;Shooter&lt;/b&gt;&lt;/p&gt;&lt;hr size=&quot;1&quot;&gt;&lt;p style=&quot;margin:0px;margin-left:4px;&quot;&gt;+ Shooter::Shooter();&lt;/p&gt;" style="verticalAlign=top;align=left;overflow=fill;fontSize=12;fontFamily=Helvetica;html=1;" parent="1" vertex="1">
          <mxGeometry x="770" y="710" width="210" height="50" as="geometry" />
        </mxCell>
        <mxCell id="YpjAp0_FHeh2oU1D8aVD-21" value="&lt;p style=&quot;margin:0px;margin-top:4px;text-align:center;&quot;&gt;&lt;b&gt;Game&lt;/b&gt;&lt;/p&gt;&lt;hr size=&quot;1&quot;&gt;&lt;p style=&quot;margin: 0px 0px 0px 4px;&quot;&gt;+ Texture map;&lt;br&gt;&lt;/p&gt;&lt;p style=&quot;margin: 0px 0px 0px 4px;&quot;&gt;+ int unit_amount;&lt;br&gt;&lt;/p&gt;&lt;p style=&quot;margin: 0px 0px 0px 4px;&quot;&gt;+ int item_amount;&lt;/p&gt;&lt;p style=&quot;margin: 0px 0px 0px 4px;&quot;&gt;+ Unit* units[unit_amount];&lt;/p&gt;&lt;p style=&quot;margin: 0px 0px 0px 4px;&quot;&gt;+ Item* map_items[item_amount];&lt;/p&gt;&lt;p style=&quot;margin: 0px 0px 0px 4px;&quot;&gt;+ Storage storage;&lt;/p&gt;&lt;hr size=&quot;1&quot;&gt;&lt;p style=&quot;margin:0px;margin-left:4px;&quot;&gt;+ Game::Game();&lt;/p&gt;&lt;p style=&quot;margin:0px;margin-left:4px;&quot;&gt;+ void update();&lt;/p&gt;&lt;p style=&quot;margin:0px;margin-left:4px;&quot;&gt;+ void draw_map(&amp;amp;window);&lt;/p&gt;&lt;p style=&quot;margin:0px;margin-left:4px;&quot;&gt;+ int if_game_is_over();&lt;/p&gt;&lt;p style=&quot;margin:0px;margin-left:4px;&quot;&gt;+ void create_collision();&lt;/p&gt;&lt;p style=&quot;margin:0px;margin-left:4px;&quot;&gt;&lt;br&gt;&lt;/p&gt;" style="verticalAlign=top;align=left;overflow=fill;fontSize=12;fontFamily=Helvetica;html=1;" parent="1" vertex="1">
          <mxGeometry x="488" y="-130" width="190" height="205" as="geometry" />
        </mxCell>
        <mxCell id="SxMQuaQRuv7vPPh1gYyD-24" style="edgeStyle=orthogonalEdgeStyle;rounded=0;sketch=0;orthogonalLoop=1;jettySize=auto;html=1;exitX=0;exitY=0.5;exitDx=0;exitDy=0;entryX=1;entryY=0.468;entryDx=0;entryDy=0;entryPerimeter=0;strokeColor=default;endFill=0;" edge="1" parent="1" source="YpjAp0_FHeh2oU1D8aVD-25" target="YpjAp0_FHeh2oU1D8aVD-21">
          <mxGeometry relative="1" as="geometry" />
        </mxCell>
        <mxCell id="YpjAp0_FHeh2oU1D8aVD-25" value="&lt;p style=&quot;margin:0px;margin-top:4px;text-align:center;&quot;&gt;&lt;b&gt;Item&lt;/b&gt;&lt;/p&gt;&lt;hr size=&quot;1&quot;&gt;&lt;p style=&quot;margin:0px;margin-left:4px;&quot;&gt;+ float x;&lt;/p&gt;&lt;p style=&quot;margin:0px;margin-left:4px;&quot;&gt;+ float y;&lt;br&gt;&lt;/p&gt;&lt;hr size=&quot;1&quot;&gt;&lt;p style=&quot;margin:0px;margin-left:4px;&quot;&gt;+ int on_ground();&lt;br&gt;&lt;/p&gt;" style="verticalAlign=top;align=left;overflow=fill;fontSize=12;fontFamily=Helvetica;html=1;" parent="1" vertex="1">
          <mxGeometry x="820" y="-80" width="180" height="90" as="geometry" />
        </mxCell>
        <mxCell id="SxMQuaQRuv7vPPh1gYyD-13" style="edgeStyle=orthogonalEdgeStyle;rounded=0;orthogonalLoop=1;jettySize=auto;html=1;exitX=1;exitY=0;exitDx=0;exitDy=0;entryX=0;entryY=1;entryDx=0;entryDy=0;endFill=0;" edge="1" parent="1" source="YpjAp0_FHeh2oU1D8aVD-26" target="YpjAp0_FHeh2oU1D8aVD-29">
          <mxGeometry relative="1" as="geometry" />
        </mxCell>
        <mxCell id="YpjAp0_FHeh2oU1D8aVD-26" value="&lt;p style=&quot;margin:0px;margin-top:4px;text-align:center;&quot;&gt;&lt;b&gt;ak47&lt;/b&gt;&lt;/p&gt;&lt;hr size=&quot;1&quot;&gt;&lt;p style=&quot;margin:0px;margin-left:4px;&quot;&gt;&lt;span style=&quot;background-color: initial;&quot;&gt;+ ak47::ak47();&lt;/span&gt;&lt;br&gt;&lt;/p&gt;&lt;p style=&quot;margin:0px;margin-left:4px;&quot;&gt;+ void reload(&amp;amp;clip);&lt;span style=&quot;background-color: initial;&quot;&gt;&lt;br&gt;&lt;/span&gt;&lt;/p&gt;" style="verticalAlign=top;align=left;overflow=fill;fontSize=12;fontFamily=Helvetica;html=1;" parent="1" vertex="1">
          <mxGeometry x="920" y="80" width="180" height="70" as="geometry" />
        </mxCell>
        <mxCell id="YpjAp0_FHeh2oU1D8aVD-27" style="edgeStyle=orthogonalEdgeStyle;rounded=0;orthogonalLoop=1;jettySize=auto;html=1;exitX=0.5;exitY=1;exitDx=0;exitDy=0;" parent="1" source="YpjAp0_FHeh2oU1D8aVD-26" target="YpjAp0_FHeh2oU1D8aVD-26" edge="1">
          <mxGeometry relative="1" as="geometry" />
        </mxCell>
        <mxCell id="SxMQuaQRuv7vPPh1gYyD-14" style="edgeStyle=orthogonalEdgeStyle;rounded=0;orthogonalLoop=1;jettySize=auto;html=1;exitX=0;exitY=0;exitDx=0;exitDy=0;entryX=1;entryY=1;entryDx=0;entryDy=0;endFill=0;" edge="1" parent="1" source="YpjAp0_FHeh2oU1D8aVD-28" target="YpjAp0_FHeh2oU1D8aVD-29">
          <mxGeometry relative="1" as="geometry" />
        </mxCell>
        <mxCell id="YpjAp0_FHeh2oU1D8aVD-28" value="&lt;p style=&quot;margin:0px;margin-top:4px;text-align:center;&quot;&gt;&lt;b&gt;knife&lt;/b&gt;&lt;/p&gt;&lt;hr size=&quot;1&quot;&gt;&lt;p style=&quot;margin:0px;margin-left:4px;&quot;&gt;+ knife::knife();&lt;br&gt;&lt;/p&gt;&lt;p style=&quot;margin:0px;margin-left:4px;&quot;&gt;&lt;br&gt;&lt;/p&gt;" style="verticalAlign=top;align=left;overflow=fill;fontSize=12;fontFamily=Helvetica;html=1;" parent="1" vertex="1">
          <mxGeometry x="1280" y="80" width="180" height="50" as="geometry" />
        </mxCell>
        <mxCell id="SxMQuaQRuv7vPPh1gYyD-2" style="edgeStyle=orthogonalEdgeStyle;rounded=0;orthogonalLoop=1;jettySize=auto;html=1;exitX=0;exitY=0.5;exitDx=0;exitDy=0;entryX=1;entryY=0.5;entryDx=0;entryDy=0;endFill=0;" edge="1" parent="1" source="YpjAp0_FHeh2oU1D8aVD-29" target="YpjAp0_FHeh2oU1D8aVD-25">
          <mxGeometry relative="1" as="geometry" />
        </mxCell>
        <mxCell id="YpjAp0_FHeh2oU1D8aVD-29" value="&lt;p style=&quot;margin:0px;margin-top:4px;text-align:center;&quot;&gt;&lt;b&gt;weapon&lt;/b&gt;&lt;/p&gt;&lt;hr size=&quot;1&quot;&gt;&lt;p style=&quot;margin:0px;margin-left:4px;&quot;&gt;+ double damage;&lt;br&gt;+ double rate_of_fire;&lt;/p&gt;&lt;hr size=&quot;1&quot;&gt;&lt;p style=&quot;margin:0px;margin-left:4px;&quot;&gt;+ void make_a_shot(&amp;amp;weapon&lt;span style=&quot;background-color: initial;&quot;&gt;);&lt;/span&gt;&lt;/p&gt;" style="verticalAlign=top;align=left;overflow=fill;fontSize=12;fontFamily=Helvetica;html=1;" parent="1" vertex="1">
          <mxGeometry x="1100" y="-80" width="180" height="90" as="geometry" />
        </mxCell>
        <mxCell id="YpjAp0_FHeh2oU1D8aVD-37" value="&lt;p style=&quot;margin:0px;margin-top:4px;text-align:center;&quot;&gt;&lt;b&gt;Storage&lt;/b&gt;&lt;/p&gt;&lt;hr size=&quot;1&quot;&gt;&lt;p style=&quot;margin: 0px 0px 0px 4px;&quot;&gt;&lt;span style=&quot;background-color: initial;&quot;&gt;+ float x;&lt;/span&gt;&lt;br&gt;&lt;/p&gt;&lt;p style=&quot;margin: 0px 0px 0px 4px;&quot;&gt;+ float y;&lt;/p&gt;&lt;p style=&quot;margin: 0px 0px 0px 4px;&quot;&gt;+ const int capacity;&lt;/p&gt;&lt;p style=&quot;margin: 0px 0px 0px 4px;&quot;&gt;+ Item *storage[capacity];&lt;/p&gt;&lt;p style=&quot;margin: 0px 0px 0px 4px;&quot;&gt;+ int size;&lt;br&gt;&lt;/p&gt;&lt;hr size=&quot;1&quot;&gt;&lt;p style=&quot;margin:0px;margin-left:4px;&quot;&gt;+ Storage::Storage()&lt;/p&gt;&lt;p style=&quot;margin:0px;margin-left:4px;&quot;&gt;+ void update();&lt;/p&gt;&lt;p style=&quot;margin:0px;margin-left:4px;&quot;&gt;+ void draw(&amp;amp;window);&lt;/p&gt;&lt;p style=&quot;margin:0px;margin-left:4px;&quot;&gt;+ Item&amp;amp; give_item();&lt;/p&gt;&lt;p style=&quot;margin:0px;margin-left:4px;&quot;&gt;+ void drop_item(&amp;amp;item);&lt;/p&gt;" style="verticalAlign=top;align=left;overflow=fill;fontSize=12;fontFamily=Helvetica;html=1;" parent="1" vertex="1">
          <mxGeometry x="920" y="482.5" width="160" height="195" as="geometry" />
        </mxCell>
        <mxCell id="SxMQuaQRuv7vPPh1gYyD-4" value="&lt;p style=&quot;margin:0px;margin-top:4px;text-align:center;&quot;&gt;&lt;b&gt;first_aid_kit&lt;/b&gt;&lt;/p&gt;&lt;hr size=&quot;1&quot;&gt;&lt;p style=&quot;margin:0px;margin-left:4px;&quot;&gt;+ first_aid_kit::first_aid_kit();&lt;br&gt;&lt;/p&gt;&lt;p style=&quot;margin:0px;margin-left:4px;&quot;&gt;+ void use_first_aid_kit();&lt;/p&gt;&lt;p style=&quot;margin:0px;margin-left:4px;&quot;&gt;&lt;br&gt;&lt;/p&gt;" style="verticalAlign=top;align=left;overflow=fill;fontSize=12;fontFamily=Helvetica;html=1;" vertex="1" parent="1">
          <mxGeometry x="1100" y="-260" width="180" height="60" as="geometry" />
        </mxCell>
        <mxCell id="SxMQuaQRuv7vPPh1gYyD-6" value="" style="endArrow=classic;html=1;rounded=0;exitX=0;exitY=1;exitDx=0;exitDy=0;entryX=1;entryY=0;entryDx=0;entryDy=0;endFill=0;" edge="1" parent="1" source="SxMQuaQRuv7vPPh1gYyD-4" target="YpjAp0_FHeh2oU1D8aVD-25">
          <mxGeometry width="50" height="50" relative="1" as="geometry">
            <mxPoint x="1040" y="-160" as="sourcePoint" />
            <mxPoint x="1080" y="-80" as="targetPoint" />
          </mxGeometry>
        </mxCell>
        <mxCell id="SxMQuaQRuv7vPPh1gYyD-15" style="edgeStyle=orthogonalEdgeStyle;rounded=0;orthogonalLoop=1;jettySize=auto;html=1;exitX=0.5;exitY=0;exitDx=0;exitDy=0;endFill=0;" edge="1" parent="1" source="SxMQuaQRuv7vPPh1gYyD-10" target="YpjAp0_FHeh2oU1D8aVD-26">
          <mxGeometry relative="1" as="geometry" />
        </mxCell>
        <mxCell id="SxMQuaQRuv7vPPh1gYyD-10" value="&lt;p style=&quot;margin:0px;margin-top:4px;text-align:center;&quot;&gt;&lt;b&gt;clip&lt;/b&gt;&lt;/p&gt;&lt;hr size=&quot;1&quot;&gt;&lt;p style=&quot;margin:0px;margin-left:4px;&quot;&gt;+ int capacity;&lt;br&gt;+ int size;&lt;/p&gt;&lt;hr size=&quot;1&quot;&gt;&lt;p style=&quot;margin:0px;margin-left:4px;&quot;&gt;+ clip::clip();&lt;/p&gt;" style="verticalAlign=top;align=left;overflow=fill;fontSize=12;fontFamily=Helvetica;html=1;" vertex="1" parent="1">
          <mxGeometry x="920" y="210" width="180" height="90" as="geometry" />
        </mxCell>
        <mxCell id="SxMQuaQRuv7vPPh1gYyD-23" style="edgeStyle=orthogonalEdgeStyle;rounded=0;sketch=0;orthogonalLoop=1;jettySize=auto;html=1;exitX=0.355;exitY=0.009;exitDx=0;exitDy=0;entryX=1.001;entryY=0.985;entryDx=0;entryDy=0;entryPerimeter=0;strokeColor=default;endFill=0;exitPerimeter=0;" edge="1" parent="1">
          <mxGeometry relative="1" as="geometry">
            <mxPoint x="678.75" y="525.0800000000002" as="sourcePoint" />
            <mxPoint x="680.21" y="489.79999999999995" as="targetPoint" />
          </mxGeometry>
        </mxCell>
        <mxCell id="SxMQuaQRuv7vPPh1gYyD-17" value="&lt;p style=&quot;margin:0px;margin-top:4px;text-align:center;&quot;&gt;&lt;b&gt;Enemy&lt;/b&gt;&lt;/p&gt;&lt;hr size=&quot;1&quot;&gt;&amp;nbsp;+ int player_in_range();&lt;br&gt;&amp;nbsp;+ int storage_in_range();&lt;br&gt;&lt;p style=&quot;margin: 0px 0px 0px 4px;&quot;&gt;&lt;span style=&quot;background-color: initial;&quot;&gt;+ void follow_player();&lt;/span&gt;&lt;br&gt;&lt;/p&gt;&lt;p style=&quot;margin: 0px 0px 0px 4px;&quot;&gt;+ void attack_player();&lt;/p&gt;&lt;p style=&quot;margin: 0px 0px 0px 4px;&quot;&gt;+ void open_storage(&amp;amp;Storage);&lt;/p&gt;&lt;p style=&quot;margin: 0px 0px 0px 4px;&quot;&gt;+ void get_item(&amp;amp;item)&lt;/p&gt;&lt;p style=&quot;margin: 0px 0px 0px 4px;&quot;&gt;&lt;br&gt;&lt;/p&gt;&lt;p style=&quot;margin: 0px 0px 0px 4px;&quot;&gt;&lt;br&gt;&lt;/p&gt;" style="verticalAlign=top;align=left;overflow=fill;fontSize=12;fontFamily=Helvetica;html=1;" vertex="1" parent="1">
          <mxGeometry x="620" y="520" width="190" height="120" as="geometry" />
        </mxCell>
        <mxCell id="SxMQuaQRuv7vPPh1gYyD-25" value="" style="endArrow=classic;html=1;rounded=0;sketch=0;strokeColor=default;entryX=1;entryY=0;entryDx=0;entryDy=0;exitX=0;exitY=1;exitDx=0;exitDy=0;endFill=0;" edge="1" parent="1" source="YpjAp0_FHeh2oU1D8aVD-25" target="xvtYjUvMFz7qYb3zcexy-21">
          <mxGeometry width="50" height="50" relative="1" as="geometry">
            <mxPoint x="770" y="60" as="sourcePoint" />
            <mxPoint x="820" y="10" as="targetPoint" />
          </mxGeometry>
        </mxCell>
        <mxCell id="SxMQuaQRuv7vPPh1gYyD-26" value="" style="endArrow=classic;html=1;rounded=0;sketch=0;strokeColor=default;exitX=0;exitY=0;exitDx=0;exitDy=0;entryX=1;entryY=1;entryDx=0;entryDy=0;endFill=0;" edge="1" parent="1" source="YpjAp0_FHeh2oU1D8aVD-37" target="YpjAp0_FHeh2oU1D8aVD-21">
          <mxGeometry width="50" height="50" relative="1" as="geometry">
            <mxPoint x="1060" y="600" as="sourcePoint" />
            <mxPoint x="1110" y="550" as="targetPoint" />
          </mxGeometry>
        </mxCell>
        <mxCell id="SxMQuaQRuv7vPPh1gYyD-27" value="" style="endArrow=classic;html=1;rounded=0;sketch=0;strokeColor=default;exitX=0;exitY=0.5;exitDx=0;exitDy=0;entryX=1;entryY=0.5;entryDx=0;entryDy=0;endFill=0;" edge="1" parent="1" source="YpjAp0_FHeh2oU1D8aVD-37" target="SxMQuaQRuv7vPPh1gYyD-17">
          <mxGeometry width="50" height="50" relative="1" as="geometry">
            <mxPoint x="950" y="610" as="sourcePoint" />
            <mxPoint x="1000" y="560" as="targetPoint" />
          </mxGeometry>
        </mxCell>
        <mxCell id="SxMQuaQRuv7vPPh1gYyD-28" style="edgeStyle=orthogonalEdgeStyle;rounded=0;sketch=0;orthogonalLoop=1;jettySize=auto;html=1;exitX=0.5;exitY=1;exitDx=0;exitDy=0;strokeColor=default;endFill=0;" edge="1" parent="1" source="YpjAp0_FHeh2oU1D8aVD-13" target="YpjAp0_FHeh2oU1D8aVD-13">
          <mxGeometry relative="1" as="geometry" />
        </mxCell>
      </root>
    </mxGraphModel>
  </diagram>
</mxfile>
